<svg version="1.1" id="Layer_1" xmlns="http://www.w3.org/2000/svg" xmlns:xlink="http://www.w3.org/1999/xlink" x="0px" y="0px"
	 viewBox="0 0 1024 1024" style="enable-background:new 0 0 1024 1024;" xml:space="preserve">
<style type="text/css">
	.st0{fill:#1CB0B9;stroke:#018C92;stroke-miterlimit:10;}
	.st1{fill:#FFFFFF;}
</style>
<path class="st0" d="M271.4,1024c-99,0-156.6-20.8-202.8-67C22.3,910.7,1.5,853,1.5,754V271c0-99,20.8-156.7,67-202.9
	C114.8,21.8,172.4,1,271.4,1h483.3c99,0,156.6,20.8,202.8,67c46.2,46.3,67,103.9,67,202.9V754c0,99-20.8,156.7-67,202.9
	c-46.2,46.3-103.9,67-202.8,67C655.7,1024,370.3,1024,271.4,1024z"/>
<g>
	<g>
		<path class="st1" d="M557.1,173.9c0,33.3-27,60.3-60.3,60.3s-60.3-27-60.3-60.3s27-60.3,60.3-60.3S557.1,140.6,557.1,173.9z
			 M496.8,281.8c-34.6,0-62.7,28.1-62.7,62.7s28.1,62.7,62.7,62.7s62.7-28.1,62.7-62.7S531.4,281.8,496.8,281.8z M496.8,450.1
			c-36,0-65.1,29.2-65.1,65.1s29.2,65.1,65.1,65.1s65.1-29.2,65.1-65.1S532.8,450.1,496.8,450.1z M496.8,623.3
			c-34.6,0-62.7,28.1-62.7,62.7s28.1,62.7,62.7,62.7s62.7-28.1,62.7-62.7S531.4,623.3,496.8,623.3z M496.8,796.4
			c-33.3,0-60.3,27-60.3,60.3s27,60.3,60.3,60.3s60.3-27,60.3-60.3S530.1,796.4,496.8,796.4z M662.9,273.8
			c-39.1,0-70.8,31.7-70.8,70.8s31.7,70.8,70.8,70.8c39.1,0,70.8-31.7,70.8-70.8S702,273.8,662.9,273.8z M662.9,442.1
			c-40.4,0-73.2,32.8-73.2,73.2c0,40.4,32.8,73.2,73.2,73.2c40.4,0,73.2-32.8,73.2-73.2C736.1,474.9,703.3,442.1,662.9,442.1z
			 M662.9,615.2c-39.1,0-70.8,31.7-70.8,70.8s31.7,70.8,70.8,70.8c39.1,0,70.8-31.7,70.8-70.8S702,615.2,662.9,615.2z M833.4,434.1
			c-44.9,0-81.2,36.4-81.2,81.2s36.4,81.2,81.2,81.2s81.2-36.4,81.2-81.2S878.3,434.1,833.4,434.1z M328.5,289.9
			c-30.2,0-54.7,24.5-54.7,54.7c0,30.2,24.5,54.7,54.7,54.7c30.2,0,54.7-24.5,54.7-54.7C383.2,314.4,358.7,289.9,328.5,289.9z
			 M328.5,458.2c-31.5,0-57.1,25.6-57.1,57.1c0,31.5,25.6,57.1,57.1,57.1s57.1-25.6,57.1-57.1C385.6,483.8,360.1,458.2,328.5,458.2z
			 M328.5,631.3c-30.2,0-54.7,24.5-54.7,54.7s24.5,54.7,54.7,54.7c30.2,0,54.7-24.5,54.7-54.7S358.7,631.3,328.5,631.3z
			 M160.3,466.2c-27.1,0-49.1,22-49.1,49.1c0,27.1,22,49.1,49.1,49.1s49.1-22,49.1-49.1C209.3,488.2,187.4,466.2,160.3,466.2z"/>
	</g>
</g>
</svg>
