<?xml version="1.0" encoding="utf-8"?>
<!-- Generator: Adobe Illustrator 23.0.2, SVG Export Plug-In . SVG Version: 6.00 Build 0)  -->
<svg version="1.1" id="Capa_1" xmlns="http://www.w3.org/2000/svg" xmlns:xlink="http://www.w3.org/1999/xlink" x="0px" y="0px"
	 viewBox="0 0 33 33" style="enable-background:new 0 0 33 33;" xml:space="preserve">
<g>
	<path d="M16.5,26.3c-4.3,0-7.8-3.5-7.8-7.8c0-0.3,0.2-0.5,0.5-0.5h14.6c0.3,0,0.5,0.2,0.5,0.5C24.3,22.8,20.8,26.3,16.5,26.3z
		 M9.7,19c0.3,3.5,3.2,6.3,6.8,6.3s6.5-2.8,6.8-6.3H9.7z"/>
	<circle cx="11.7" cy="11.9" r="2.1"/>
	<circle cx="21.8" cy="11.9" r="2.1"/>
	<g>
		<path d="M14,25.5c-0.3,0-0.5-0.2-0.5-0.5v-6.5c0-0.3,0.2-0.5,0.5-0.5s0.5,0.2,0.5,0.5V25C14.5,25.3,14.3,25.5,14,25.5z"/>
		<path d="M19,25.5c-0.3,0-0.5-0.2-0.5-0.5v-6.5c0-0.3,0.2-0.5,0.5-0.5s0.5,0.2,0.5,0.5V25C19.5,25.3,19.3,25.5,19,25.5z"/>
	</g>
</g>
</svg>
