<?xml version="1.0" encoding="UTF-8" standalone="no"?>
<!-- Created with Inkscape (http://www.inkscape.org/) -->

<svg
   xmlns:dc="http://purl.org/dc/elements/1.1/"
   xmlns:cc="http://creativecommons.org/ns#"
   xmlns:rdf="http://www.w3.org/1999/02/22-rdf-syntax-ns#"
   xmlns:svg="http://www.w3.org/2000/svg"
   xmlns="http://www.w3.org/2000/svg"
   xmlns:sodipodi="http://sodipodi.sourceforge.net/DTD/sodipodi-0.dtd"
   xmlns:inkscape="http://www.inkscape.org/namespaces/inkscape"
   width="210mm"
   height="297mm"
   viewBox="0 0 210 297"
   version="1.1"
   id="svg8"
   inkscape:export-filename="C:\Users\sbbfti\Google Drive\Work and Projects\SinBerBEST\20 Cozie\cozie\resources\images\icons\high.png"
   inkscape:export-xdpi="96"
   inkscape:export-ydpi="96"
   inkscape:version="0.92.4 (5da689c313, 2019-01-14)"
   sodipodi:docname="icons.svg">
  <defs
     id="defs2">
    <inkscape:path-effect
       effect="bspline"
       id="path-effect4812"
       is_visible="true"
       weight="33.333333"
       steps="2"
       helper_size="0"
       apply_no_weight="true"
       apply_with_weight="true"
       only_selected="false" />
    <inkscape:path-effect
       effect="bspline"
       id="path-effect4754"
       is_visible="true"
       weight="33.333333"
       steps="2"
       helper_size="0"
       apply_no_weight="true"
       apply_with_weight="true"
       only_selected="false" />
    <inkscape:path-effect
       effect="bspline"
       id="path-effect825"
       is_visible="true"
       weight="33.333333"
       steps="2"
       helper_size="0"
       apply_no_weight="true"
       apply_with_weight="true"
       only_selected="false" />
    <inkscape:path-effect
       effect="bspline"
       id="path-effect821"
       is_visible="true"
       weight="33.333333"
       steps="2"
       helper_size="0"
       apply_no_weight="true"
       apply_with_weight="true"
       only_selected="false" />
    <inkscape:path-effect
       effect="bspline"
       id="path-effect825-2"
       is_visible="true"
       weight="33.333333"
       steps="2"
       helper_size="0"
       apply_no_weight="true"
       apply_with_weight="true"
       only_selected="false" />
    <inkscape:path-effect
       effect="bspline"
       id="path-effect821-1"
       is_visible="true"
       weight="33.333333"
       steps="2"
       helper_size="0"
       apply_no_weight="true"
       apply_with_weight="true"
       only_selected="false" />
    <inkscape:path-effect
       effect="bspline"
       id="path-effect825-6"
       is_visible="true"
       weight="33.333333"
       steps="2"
       helper_size="0"
       apply_no_weight="true"
       apply_with_weight="true"
       only_selected="false" />
    <inkscape:path-effect
       effect="bspline"
       id="path-effect821-8"
       is_visible="true"
       weight="33.333333"
       steps="2"
       helper_size="0"
       apply_no_weight="true"
       apply_with_weight="true"
       only_selected="false" />
    <inkscape:path-effect
       effect="bspline"
       id="path-effect825-7"
       is_visible="true"
       weight="33.333333"
       steps="2"
       helper_size="0"
       apply_no_weight="true"
       apply_with_weight="true"
       only_selected="false" />
    <inkscape:path-effect
       effect="bspline"
       id="path-effect821-9"
       is_visible="true"
       weight="33.333333"
       steps="2"
       helper_size="0"
       apply_no_weight="true"
       apply_with_weight="true"
       only_selected="false" />
    <inkscape:path-effect
       effect="bspline"
       id="path-effect825-4"
       is_visible="true"
       weight="33.333333"
       steps="2"
       helper_size="0"
       apply_no_weight="true"
       apply_with_weight="true"
       only_selected="false" />
    <inkscape:path-effect
       effect="bspline"
       id="path-effect821-90"
       is_visible="true"
       weight="33.333333"
       steps="2"
       helper_size="0"
       apply_no_weight="true"
       apply_with_weight="true"
       only_selected="false" />
    <inkscape:path-effect
       effect="bspline"
       id="path-effect821-90-9"
       is_visible="true"
       weight="33.333333"
       steps="2"
       helper_size="0"
       apply_no_weight="true"
       apply_with_weight="true"
       only_selected="false" />
    <inkscape:path-effect
       effect="bspline"
       id="path-effect821-9-8"
       is_visible="true"
       weight="33.333333"
       steps="2"
       helper_size="0"
       apply_no_weight="true"
       apply_with_weight="true"
       only_selected="false" />
    <inkscape:path-effect
       effect="bspline"
       id="path-effect821-9-8-1"
       is_visible="true"
       weight="33.333333"
       steps="2"
       helper_size="0"
       apply_no_weight="true"
       apply_with_weight="true"
       only_selected="false" />
    <inkscape:path-effect
       effect="bspline"
       id="path-effect821-9-8-15"
       is_visible="true"
       weight="33.333333"
       steps="2"
       helper_size="0"
       apply_no_weight="true"
       apply_with_weight="true"
       only_selected="false" />
    <inkscape:path-effect
       effect="bspline"
       id="path-effect821-9-8-1-8"
       is_visible="true"
       weight="33.333333"
       steps="2"
       helper_size="0"
       apply_no_weight="true"
       apply_with_weight="true"
       only_selected="false" />
    <inkscape:path-effect
       effect="bspline"
       id="path-effect4754-1"
       is_visible="true"
       weight="33.333333"
       steps="2"
       helper_size="0"
       apply_no_weight="true"
       apply_with_weight="true"
       only_selected="false" />
    <inkscape:path-effect
       effect="bspline"
       id="path-effect4812-1"
       is_visible="true"
       weight="33.333333"
       steps="2"
       helper_size="0"
       apply_no_weight="true"
       apply_with_weight="true"
       only_selected="false" />
    <inkscape:path-effect
       effect="bspline"
       id="path-effect4812-1-0"
       is_visible="true"
       weight="33.333333"
       steps="2"
       helper_size="0"
       apply_no_weight="true"
       apply_with_weight="true"
       only_selected="false" />
    <inkscape:path-effect
       effect="bspline"
       id="path-effect4812-1-0-7"
       is_visible="true"
       weight="33.333333"
       steps="2"
       helper_size="0"
       apply_no_weight="true"
       apply_with_weight="true"
       only_selected="false" />
    <inkscape:path-effect
       effect="bspline"
       id="path-effect4812-1-0-7-6"
       is_visible="true"
       weight="33.333333"
       steps="2"
       helper_size="0"
       apply_no_weight="true"
       apply_with_weight="true"
       only_selected="false" />
    <inkscape:path-effect
       effect="bspline"
       id="path-effect4812-1-0-75"
       is_visible="true"
       weight="33.333333"
       steps="2"
       helper_size="0"
       apply_no_weight="true"
       apply_with_weight="true"
       only_selected="false" />
    <inkscape:path-effect
       effect="bspline"
       id="path-effect4812-1-4"
       is_visible="true"
       weight="33.333333"
       steps="2"
       helper_size="0"
       apply_no_weight="true"
       apply_with_weight="true"
       only_selected="false" />
    <inkscape:path-effect
       effect="bspline"
       id="path-effect4812-7"
       is_visible="true"
       weight="33.333333"
       steps="2"
       helper_size="0"
       apply_no_weight="true"
       apply_with_weight="true"
       only_selected="false" />
  </defs>
  <sodipodi:namedview
     id="base"
     pagecolor="#ffffff"
     bordercolor="#666666"
     borderopacity="1.0"
     inkscape:pageopacity="0.0"
     inkscape:pageshadow="2"
     inkscape:zoom="1.3636363"
     inkscape:cx="756.19242"
     inkscape:cy="757.34537"
     inkscape:document-units="mm"
     inkscape:current-layer="layer1"
     showgrid="false"
     showborder="false"
     inkscape:snap-grids="true"
     inkscape:snap-bbox="false"
     inkscape:object-paths="true"
     inkscape:snap-object-midpoints="true"
     inkscape:snap-center="true"
     inkscape:window-width="1920"
     inkscape:window-height="1017"
     inkscape:window-x="1912"
     inkscape:window-y="-8"
     inkscape:window-maximized="1" />
  <metadata
     id="metadata5">
    <rdf:RDF>
      <cc:Work
         rdf:about="">
        <dc:format>image/svg+xml</dc:format>
        <dc:type
           rdf:resource="http://purl.org/dc/dcmitype/StillImage" />
        <dc:title></dc:title>
      </cc:Work>
    </rdf:RDF>
  </metadata>
  <g
     inkscape:label="Layer 1"
     inkscape:groupmode="layer"
     id="layer1">
    <circle
       id="path10"
       cx="105.30417"
       cy="116.81875"
       r="36.777084"
       style="stroke-width:1;stroke-miterlimit:4;stroke-dasharray:none;fill:none;stroke:#000000;stroke-opacity:1"
       inkscape:export-xdpi="96"
       inkscape:export-ydpi="96" />
    <path
       id="path4732"
       style="fill:none;stroke:#000000;stroke-width:1.5;stroke-linecap:round;stroke-miterlimit:4;stroke-dasharray:none;stroke-opacity:1"
       d="m 105.65312,99.826773 a 8.0947074,8.0947074 0 0 1 7.99794,-6.846819 8.0947074,8.0947074 0 0 1 8.09471,8.094706 v 0 a 8.0947074,8.0947074 0 0 1 -8.09471,8.09471 8.0947074,8.0947074 0 0 1 -0.61221,-0.0232 m -39.787529,1e-5 h 39.787529"
       inkscape:connector-curvature="0"
       inkscape:export-xdpi="96"
       inkscape:export-ydpi="96" />
    <path
       id="path4732-6"
       style="fill:none;stroke:#000000;stroke-width:1.5;stroke-linecap:round;stroke-miterlimit:4;stroke-dasharray:none;stroke-opacity:1"
       d="m 108.48639,134.41353 a 8.0947075,8.0947075 0 0 0 7.99794,6.84682 8.0947075,8.0947075 0 0 0 8.09471,-8.09471 v 0 a 8.0947075,8.0947075 0 0 0 -8.09471,-8.09471 8.0947075,8.0947075 0 0 0 -0.61221,0.0232 m -39.787522,-1e-5 h 39.787522"
       inkscape:connector-curvature="0"
       inkscape:export-xdpi="96"
       inkscape:export-ydpi="96" />
    <path
       id="path4761"
       style="fill:none;stroke:#000000;stroke-width:1.5;stroke-linecap:round;stroke-miterlimit:4;stroke-dasharray:none;stroke-opacity:1"
       d="m 123.56746,109.14619 a 6.0367322,6.0367322 0 0 1 6.03673,-6.03674 6.0367322,6.0367322 0 0 1 6.03673,6.03674 v 0 a 6.0367322,6.0367322 0 0 1 -6.03673,6.03673 m -45.824249,0 c 15.275017,-2.7e-4 30.549759,-2.7e-4 45.824249,0"
       inkscape:connector-curvature="0"
       inkscape:export-xdpi="96"
       inkscape:export-ydpi="96" />
    <path
       id="path4789"
       style="fill:none;stroke:#000000;stroke-width:1.5;stroke-linecap:round;stroke-miterlimit:4;stroke-dasharray:none;stroke-opacity:1"
       d="m 132.44293,120.12184 a 2.8134029,2.8134029 0 0 1 2.8134,2.8134 v 0 a 2.8134029,2.8134029 0 0 1 -2.8134,2.8134 2.8134029,2.8134029 0 0 1 -2.8134,-2.8134 m -43.010845,-2.8134 c 15.275005,2.7e-4 30.549755,2.7e-4 45.824245,0"
       inkscape:connector-curvature="0"
       inkscape:export-xdpi="96"
       inkscape:export-ydpi="96" />
    <path
       id="path4789-3"
       style="fill:none;stroke:#000000;stroke-width:1.5;stroke-linecap:round;stroke-miterlimit:4;stroke-dasharray:none;stroke-opacity:1"
       d="m 113.77098,128.77795 c 1.55379,1e-5 2.81339,1.25961 2.81339,2.8134 v 0 c 0,1.55379 -1.2596,2.81339 -2.81339,2.8134 -1.5538,0 -2.81341,-1.2596 -2.81341,-2.8134 m -28.070696,-2.8134 c 15.275,2.7e-4 15.60961,2.7e-4 30.884106,0"
       inkscape:connector-curvature="0"
       sodipodi:nodetypes="ccccccc"
       inkscape:export-xdpi="96"
       inkscape:export-ydpi="96" />
    <path
       style="fill:none;stroke:#000000;stroke-width:1.5;stroke-linecap:round;stroke-linejoin:miter;stroke-miterlimit:4;stroke-dasharray:none;stroke-opacity:1"
       d="m 86.618685,120.12184 c -1.838092,0 -3.676449,0 -5.515068,0"
       id="path4810"
       inkscape:connector-curvature="0"
       inkscape:path-effect="#path-effect4812"
       inkscape:original-d="m 86.618685,120.12184 c -1.838092,-2.7e-4 -3.676449,-2.7e-4 -5.515068,0"
       transform="matrix(0.64152835,0,0,1,28.897679,0)"
       inkscape:transform-center-x="1.7690362"
       inkscape:export-xdpi="96"
       inkscape:export-ydpi="96" />
    <path
       style="fill:none;stroke:#000000;stroke-width:1.5;stroke-linecap:round;stroke-linejoin:miter;stroke-miterlimit:4;stroke-dasharray:none;stroke-opacity:1"
       d="m 86.618685,120.12184 c -1.838092,0 -3.676449,0 -5.515068,0"
       id="path4810-1"
       inkscape:connector-curvature="0"
       inkscape:path-effect="#path-effect4812-1"
       inkscape:original-d="m 86.618685,120.12184 c -1.838092,-2.7e-4 -3.676449,-2.7e-4 -5.515068,0"
       transform="matrix(0.64152836,0,0,1,23.423755,-0.02667926)"
       inkscape:transform-center-x="1.7690362"
       inkscape:export-xdpi="96"
       inkscape:export-ydpi="96" />
    <path
       style="fill:none;stroke:#000000;stroke-width:1.5;stroke-linecap:round;stroke-linejoin:miter;stroke-miterlimit:4;stroke-dasharray:none;stroke-opacity:1"
       d="m 86.618685,120.12184 c -1.838092,0 -3.676449,0 -5.515068,0"
       id="path4810-1-3"
       inkscape:connector-curvature="0"
       inkscape:path-effect="#path-effect4812-1-0"
       inkscape:original-d="m 86.618685,120.12184 c -1.838092,-2.7e-4 -3.676449,-2.7e-4 -5.515068,0"
       transform="matrix(0.64152836,0,0,1,26.125799,-4.93892)"
       inkscape:transform-center-x="1.7690362"
       inkscape:export-xdpi="96"
       inkscape:export-ydpi="96" />
    <path
       style="fill:none;stroke:#000000;stroke-width:1.5;stroke-linecap:round;stroke-linejoin:miter;stroke-miterlimit:4;stroke-dasharray:none;stroke-opacity:1"
       d="m 86.618685,120.12184 c -1.838092,0 -3.676449,0 -5.515068,0"
       id="path4810-1-3-1"
       inkscape:connector-curvature="0"
       inkscape:path-effect="#path-effect4812-1-0-7"
       inkscape:original-d="m 86.618685,120.12184 c -1.838092,-2.7e-4 -3.676449,-2.7e-4 -5.515068,0"
       transform="matrix(0.64152836,0,0,1,20.889984,-4.93892)"
       inkscape:transform-center-x="1.7690362"
       inkscape:export-xdpi="96"
       inkscape:export-ydpi="96" />
    <circle
       id="path10-7"
       cx="190.56853"
       cy="117.27013"
       r="36.777084"
       style="fill:none;stroke:#000000;stroke-width:1;stroke-miterlimit:4;stroke-dasharray:none;stroke-opacity:1"
       inkscape:export-xdpi="96"
       inkscape:export-ydpi="96" />
    <path
       id="path4789-3-0-1"
       style="fill:none;stroke:#000000;stroke-width:1.5;stroke-linecap:round;stroke-miterlimit:4;stroke-dasharray:none;stroke-opacity:1"
       d="m 200.07188,111.4224 c 1.55379,-1e-5 2.81338,-1.25961 2.81338,-2.8134 v 0 c 0,-1.55379 -1.25959,-2.81339 -2.81338,-2.8134 -1.5538,0 -2.81341,1.2596 -2.81341,2.8134 m -28.0707,2.8134 c 15.275,-2.6e-4 15.60961,-2.6e-4 30.88411,0 m -38.90779,3.91991 c -1.17919,-2.7e-4 -2.35854,-2.7e-4 -3.53807,0 m 8.77388,0 c -1.17919,-2.7e-4 -2.35854,-2.7e-4 -3.53807,0 m 0.83603,4.91224 c -1.17919,-2.7e-4 -2.35854,-2.7e-4 -3.53807,0 m 9.01199,0.0267 c -1.17919,-2.7e-4 -2.35854,-2.7e-4 -3.53807,0 m 35.9986,5.36335 c 1.55379,1e-5 2.81338,1.25961 2.81338,2.8134 v 0 c 0,1.55379 -1.25959,2.81339 -2.81338,2.8134 -1.5538,0 -2.81341,-1.2596 -2.81341,-2.8134 m -28.0707,-2.8134 c 15.275,2.6e-4 15.60961,2.6e-4 30.88411,0 m 15.51639,-5.36335 a 2.813403,2.813403 0 0 1 2.8134,2.8134 v 0 a 2.813403,2.813403 0 0 1 -2.8134,2.8134 2.813403,2.813403 0 0 1 -2.81341,-2.8134 m -43.01084,-2.8134 c 15.275,2.6e-4 30.54975,2.6e-4 45.82425,0 m -8.87548,-10.97565 a 6.0367323,6.0367323 0 0 1 6.03673,-6.03674 6.0367323,6.0367323 0 0 1 6.03674,6.03674 v 0 a 6.0367323,6.0367323 0 0 1 -6.03674,6.03673 m -45.82424,0 c 15.27501,-2.7e-4 30.54975,-2.7e-4 45.82424,0"
       inkscape:connector-curvature="0"
       inkscape:export-xdpi="96"
       inkscape:export-ydpi="96" />
    <circle
       id="path10-7-0"
       cx="273.84793"
       cy="116.44695"
       r="36.777084"
       style="fill:none;stroke:#000000;stroke-width:1;stroke-miterlimit:4;stroke-dasharray:none;stroke-opacity:1"
       inkscape:export-xdpi="96"
       inkscape:export-ydpi="96" />
    <path
       id="path4960-7"
       style="fill:none;stroke:#000000;stroke-width:1.5;stroke-linecap:round;stroke-miterlimit:4;stroke-dasharray:none;stroke-opacity:1"
       d="m 248.60759,121.72099 c 23.6033,-3.6932 23.79747,5.90205 45.82425,0 m -41.16759,-11.64166 c 23.6033,-3.6932 23.79747,5.90205 45.82425,0 m -47.90243,5.82083 c 23.6033,-3.6932 23.79747,5.90205 45.82425,0"
       inkscape:connector-curvature="0"
       inkscape:export-xdpi="96"
       inkscape:export-ydpi="96" />
  </g>
</svg>
