<?xml version="1.0" encoding="iso-8859-1"?>
<!-- Generator: Adobe Illustrator 16.0.0, SVG Export Plug-In . SVG Version: 6.00 Build 0)  -->
<!DOCTYPE svg PUBLIC "-//W3C//DTD SVG 1.1//EN" "http://www.w3.org/Graphics/SVG/1.1/DTD/svg11.dtd">
<svg version="1.1" id="Capa_1" xmlns="http://www.w3.org/2000/svg" xmlns:xlink="http://www.w3.org/1999/xlink" x="0px" y="0px"
	 width="779.11px" height="779.11px" viewBox="0 0 779.11 779.11" style="enable-background:new 0 0 779.11 779.11;"
	 xml:space="preserve">
<g>
	<g>
		<path d="M662.914,632.351H530.07H254.474c-11.49,0-20.806,9.315-20.806,20.806v12.805c0,11.49,9.315,20.81,20.806,20.81h275.598
			h132.844h68.82v-54.418L662.914,632.351L662.914,632.351z"/>
		<circle cx="211.187" cy="189.625" r="115.19"/>
		<path d="M492.234,472.147l-263.969-0.146l-6.25-0.02v-30.632l-0.217-25.64c0-61.245-49.651-110.898-110.899-110.898
			c-2.075,0-4.136,0.07-6.184,0.182l-0.156-0.182C46.813,304.813,0,351.625,0,409.372v295.303h222.015V578.876l-2.937-0.231
			c-0.209-0.019-0.261,0.002-0.391,0.002c-15.021,0-29.417-6.324-39.562-17.399l-90.112-98.363
			c-2.873-3.135-2.66-8.003,0.476-10.874c3.133-2.873,8.003-2.659,10.874,0.476l90.111,98.362
			c7.322,7.993,17.648,12.881,28.521,13.039c0.723,0.01,10.594,0.152,10.594,0.152h262.645c25.375,0,45.947-20.571,45.947-45.947
			C538.182,492.717,517.609,472.147,492.234,472.147z"/>
		<path d="M765.197,309.111c-10.744-3.681-22.439,2.049-26.123,12.794l-87.209,254.59H339.803c-11.356,0-20.567,9.206-20.567,20.564
			s9.211,20.566,20.567,20.566h326.507c6.994,0,13.168-3.503,16.879-8.841c1.283-1.694,2.33-3.607,3.059-5.729L778,335.225
			C781.67,324.486,775.947,312.79,765.197,309.111z"/>
	</g>
</g>
<g>
</g>
<g>
</g>
<g>
</g>
<g>
</g>
<g>
</g>
<g>
</g>
<g>
</g>
<g>
</g>
<g>
</g>
<g>
</g>
<g>
</g>
<g>
</g>
<g>
</g>
<g>
</g>
<g>
</g>
</svg>
