<?xml version="1.0" encoding="utf-8"?>
<!-- Generator: Adobe Illustrator 23.0.2, SVG Export Plug-In . SVG Version: 6.00 Build 0)  -->
<svg version="1.1" id="Capa_1" xmlns="http://www.w3.org/2000/svg" xmlns:xlink="http://www.w3.org/1999/xlink" x="0px" y="0px"
	 viewBox="0 0 498 498" style="enable-background:new 0 0 498 498;" xml:space="preserve">
<g id="XMLID_203_">
	<path id="XMLID_205_" d="M301.8,176l-38,14.5l-28.3-37.7V147c0-22.9-18.6-41.5-41.5-41.5h-17.7c-13.7,0-25.8,6.8-33.4,17.1
		L90.8,149c-4,2.1-7.3,5.4-9.2,9.5l-30.2,62.9c-4.9,10.3-0.6,22.6,9.7,27.5c2.9,1.4,5.9,2,8.9,2c7.7,0,15-4.3,18.6-11.7l27.2-56.6
		l19.2-9.7v123.8l4.9,61.5l-85.5,46.2c-13.2,7.1-18.1,23.6-11,36.8c4.9,9.1,14.3,14.3,23.9,14.3c4.4,0,8.8-1.1,12.9-3.3l101.6-54.9
		c9.7-5.3,15.3-15.9,14.1-26.9l-4.6-41.7l29.5,53.1v89.1c0,15,12.2,27.2,27.2,27.2c15,0,27.2-12.2,27.2-27.2v-96.1
		c0-4.6-1.2-9.2-3.4-13.2l-36.2-64.9v-75.4l4.7,6.3c4,5.3,10.1,8.2,16.5,8.2c2.5,0,4.9-0.4,7.3-1.3l52.5-20
		c10.6-4,16-15.9,11.9-26.6C324.4,177.3,312.5,171.9,301.8,176z"/>
	<path id="XMLID_204_" d="M185.2,96.3c26.6,0,48.1-21.5,48.1-48.1c0-26.6-21.6-48.1-48.1-48.1C158.6,0,137,21.5,137,48.1
		C137,74.7,158.6,96.3,185.2,96.3z"/>
</g>
</svg>
