<?xml version="1.0" encoding="utf-8"?>
<!-- Generator: Adobe Illustrator 23.0.1, SVG Export Plug-In . SVG Version: 6.00 Build 0)  -->
<svg version="1.1" id="Capa_1" xmlns="http://www.w3.org/2000/svg" xmlns:xlink="http://www.w3.org/1999/xlink" x="0px" y="0px"
	 viewBox="0 0 111 113.9" style="enable-background:new 0 0 111 113.9;" xml:space="preserve">
<g>
	<g>
		<path d="M106.1,52.7h-8.8l2.1-2.1c0.8-0.8,0.8-2.1,0-2.9c-0.8-0.8-2.1-0.8-2.9,0l-5.1,5.1h-9.1l6.3-6.3c0.8-0.8,0.8-2.1,0-2.9
			c-0.8-0.8-2.1-0.8-2.9,0l-9.2,9.2H60.3l11.5-11.5h13c1.1,0,2.1-0.9,2.1-2.1c0-1.1-0.9-2.1-2.1-2.1h-8.9l6.4-6.4h13
			c1.1,0,2.1-0.9,2.1-2.1c0-1.1-0.9-2.1-2.1-2.1h-8.9l6.2-6.2c0.8-0.8,0.8-2.1,0-2.9c-0.8-0.8-2.1-0.8-2.9,0l-6.2,6.2v-8.9
			c0-1.1-0.9-2.1-2.1-2.1c-1.1,0-2.1,0.9-2.1,2.1v13L73,34.1v-8.9c0-1.1-0.9-2.1-2.1-2.1s-2.1,0.9-2.1,2.1v13L57.3,49.8V33.5
			l9.2-9.2c0.8-0.8,0.8-2.1,0-2.9c-0.8-0.8-2.1-0.8-2.9,0l-6.3,6.3v-9.1l9.2-9.2c0.8-0.8,0.8-2.1,0-2.9c-0.8-0.8-2.1-0.8-2.9,0
			l-6.3,6.3V3.9c0-1.1-0.9-2.1-2.1-2.1s-2.1,0.9-2.1,2.1v8.8l-6.3-6.3c-0.8-0.8-2.1-0.8-2.9,0c-0.8,0.8-0.8,2.1,0,2.9l9.2,9.2v9.1
			l-6.3-6.3c-0.8-0.8-2.1-0.8-2.9,0c-0.8,0.8-0.8,2.1,0,2.9l9.2,9.2v16.3L41.7,38.3v-13c0-1.1-0.9-2.1-2.1-2.1
			c-1.1,0-2.1,0.9-2.1,2.1v8.9l-6.4-6.4v-13c0-1.1-0.9-2.1-2.1-2.1c-1.1,0-2.1,0.9-2.1,2.1v8.9l-6.2-6.2c-0.8-0.8-2.1-0.8-2.9,0
			c-0.8,0.8-0.8,2.1,0,2.9l6.2,6.2h-8.9c-1.1,0-2.1,0.9-2.1,2.1c0,1.1,0.9,2.1,2.1,2.1h13l6.4,6.4h-8.9c-1.1,0-2.1,0.9-2.1,2.1
			c0,1.1,0.9,2.1,2.1,2.1h13l11.5,11.5H34l-9.2-9.2c-0.8-0.8-2.1-0.8-2.9,0c-0.8,0.8-0.8,2.1,0,2.9l6.3,6.3H19l-9.2-9.2
			c-0.8-0.8-2.1-0.8-2.9,0c-0.8,0.8-0.8,2.1,0,2.9l6.3,6.3H4.3c-1.1,0-2.1,0.9-2.1,2.1s0.9,2.1,2.1,2.1h8.8l-6.3,6.3
			C6,64,6,65.3,6.8,66.1c0.4,0.4,0.9,0.6,1.5,0.6s1.1-0.2,1.5-0.6l9.2-9.2h9.1l-6.3,6.3c-0.8,0.8-0.8,2.1,0,2.9
			c0.4,0.4,0.9,0.6,1.5,0.6c0.5,0,1.1-0.2,1.5-0.6l9.2-9.2h16.3L38.7,68.4h-13c-1.1,0-2.1,0.9-2.1,2.1s0.9,2.1,2.1,2.1h8.9L28.1,79
			h-13C14,79,13,79.9,13,81s0.9,2.1,2.1,2.1H24l-6.2,6.2c-0.8,0.8-0.8,2.1,0,2.9c0.4,0.4,0.9,0.6,1.5,0.6c0.5,0,1.1-0.2,1.5-0.6
			l6.2-6.2v8.9c0,1.1,0.9,2.1,2.1,2.1c1.1,0,2.1-0.9,2.1-2.1v-13l6.4-6.4v8.9c0,1.1,0.9,2.1,2.1,2.1c1.1,0,2.1-0.9,2.1-2.1v-13
			l11.5-11.5v16.3L44,85.3c-0.8,0.8-0.8,2.1,0,2.9c0.8,0.8,2.1,0.8,2.9,0l6.3-6.3V91l-9.2,9.2c-0.8,0.8-0.8,2.1,0,2.9
			c0.8,0.8,2.1,0.8,2.9,0l6.3-6.3v8.8c0,1.1,0.9,2.1,2.1,2.1c1.1,0,2.1-0.9,2.1-2.1v-8.8l6.3,6.3c0.4,0.4,0.9,0.6,1.5,0.6
			c0.5,0,1.1-0.2,1.5-0.6c0.8-0.8,0.8-2.1,0-2.9L57.3,91V82l6.3,6.3c0.4,0.4,0.9,0.6,1.5,0.6c0.5,0,1.1-0.2,1.5-0.6
			c0.8-0.8,0.8-2.1,0-2.9l-9.2-9.2V59.8l11.5,11.5v13c0,1.1,0.9,2.1,2.1,2.1s2.1-0.9,2.1-2.1v-8.9l6.4,6.4v13c0,1.1,0.9,2.1,2.1,2.1
			s2.1-0.9,2.1-2.1V86l6.2,6.2c0.4,0.4,0.9,0.6,1.5,0.6c0.5,0,1.1-0.2,1.5-0.6c0.8-0.8,0.8-2.1,0-2.9l-6.2-6.2h8.9
			c1.1,0,2.1-0.9,2.1-2.1c0-1.1-0.9-2.1-2.1-2.1h-13l-6.4-6.4h8.9c1.1,0,2.1-0.9,2.1-2.1s-0.9-2.1-2.1-2.1h-13L60.3,56.9h16.3
			l9.2,9.2c0.4,0.4,0.9,0.6,1.5,0.6c0.5,0,1.1-0.2,1.5-0.6c0.8-0.8,0.8-2.1,0-2.9l-6.3-6.3h9.1l9.2,9.2c0.4,0.4,0.9,0.6,1.5,0.6
			c0.5,0,1.1-0.2,1.5-0.6c0.8-0.8,0.8-2.1,0-2.9l-6.3-6.3h8.8c1.1,0,2.1-0.9,2.1-2.1C108.2,53.6,107.3,52.7,106.1,52.7z"/>
	</g>
</g>
<g>
	<g>
		<path d="M102.2,52.7c-2.7,0-2.7,4.2,0,4.2C104.8,56.9,104.8,52.7,102.2,52.7z"/>
	</g>
</g>
</svg>
