<?xml version="1.0" encoding="utf-8"?>
<!-- Generator: Adobe Illustrator 23.0.1, SVG Export Plug-In . SVG Version: 6.00 Build 0)  -->
<svg version="1.1" id="Capa_1" xmlns="http://www.w3.org/2000/svg" xmlns:xlink="http://www.w3.org/1999/xlink" x="0px" y="0px"
	 viewBox="0 0 105.8 110.2" style="enable-background:new 0 0 105.8 110.2;" xml:space="preserve">
<g>
	<path d="M53,22.7L53,22.7C53,22.7,53,22.7,53,22.7c-0.1,0-0.1,0-0.1,0l0,0C36.2,22.7,22.7,36.3,22.7,53s13.5,30.2,30.2,30.3l0,0
		c0,0,0,0,0.1,0c0,0,0,0,0.1,0l0,0C69.7,83.2,83.2,69.6,83.2,53C83.2,36.3,69.7,22.7,53,22.7z M52.9,74.2V31.7
		c11.7,0,21.2,9.5,21.2,21.2S64.6,74.2,52.9,74.2z M48.4,0h9.2v16.1h-9.2V0z M48.4,89.9h9.2V106h-9.2V89.9z M0.1,48.4h16.1v9.2H0.1
		V48.4z M106,57.6H89.9v-9.2H106V57.6z M23.7,30.1L12.3,18.8l6.5-6.5l11.4,11.4L23.7,30.1z M82.4,75.8l11.4,11.4l-6.5,6.5L75.9,82.3
		L82.4,75.8z M30.2,82.3L18.8,93.7l-6.5-6.5l11.4-11.4L30.2,82.3z M82.4,30.1l-6.5-6.5l11.4-11.4l6.5,6.5L82.4,30.1z"/>
</g>
</svg>
