<?xml version="1.0" encoding="utf-8"?>
<!-- Generator: Adobe Illustrator 23.0.1, SVG Export Plug-In . SVG Version: 6.00 Build 0)  -->
<svg version="1.1" id="Layer_1" xmlns="http://www.w3.org/2000/svg" xmlns:xlink="http://www.w3.org/1999/xlink" x="0px" y="0px"
	 viewBox="0 0 106.3 109.9" style="enable-background:new 0 0 106.3 109.9;" xml:space="preserve">
<path d="M98.8,40.5c-3.7-3.6-10.2-7.8-20.6-7.8h-50c-10.3,0-16.9,4.3-20.6,7.8c-4.7,4.6-7.4,10.7-7.4,16.8c0,9.3,6.7,18.8,21.8,18.8
	c10.3,0,16.9-4.3,20.6-7.8c4.6-4.5,7.2-10.4,7.4-16.4c2-0.7,4.6-0.7,6.6,0c0.2,12,10.6,24.2,27.9,24.2c15,0,21.8-9.4,21.8-18.8
	C106.2,51.2,103.5,45.1,98.8,40.5z M57.4,45.6c-2.6-0.7-5.8-0.7-8.5,0c-0.8-2.5-2.1-4.8-4-6.7h16.5C59.6,40.8,58.2,43,57.4,45.6z"/>
</svg>
