<?xml version="1.0" encoding="utf-8"?>
<!-- Generator: Adobe Illustrator 23.0.1, SVG Export Plug-In . SVG Version: 6.00 Build 0)  -->
<svg version="1.1" id="Layer_1" xmlns="http://www.w3.org/2000/svg" xmlns:xlink="http://www.w3.org/1999/xlink" x="0px" y="0px"
	 viewBox="0 0 105.4 109.2" style="enable-background:new 0 0 105.4 109.2;" xml:space="preserve">
<g>
	<g>
		<path d="M6.4,31.7c-3.5,0-6.4,2.9-6.4,6.4v31.4c0,3.5,2.9,6.4,6.4,6.4H17V31.7H6.4z M12.7,71.7H6.4c-1.2,0-2.1-1-2.1-2.1V38.1
			c0-1.2,1-2.1,2.1-2.1h6.3L12.7,71.7L12.7,71.7z"/>
	</g>
</g>
<g>
	<g>
		<path d="M61.3,10.1c-2.1-1.1-4.6-0.9-6.4,0.5L22.5,32.7v42.2l32.3,22c1.1,0.8,2.4,1.2,3.6,1.2c1,0,1.9-0.2,2.8-0.7
			c2.1-1.1,3.4-3.2,3.4-5.5V15.7C64.7,13.3,63.4,11.2,61.3,10.1z M60.4,92c0,1.1-0.7,1.6-1,1.7c-0.3,0.2-1.1,0.5-2.1-0.2L26.8,72.7
			V34.9l30.6-20.8c0.9-0.6,1.7-0.3,2-0.2c0.3,0.2,1,0.6,1,1.7L60.4,92L60.4,92z"/>
	</g>
</g>
<g>
	<g>
		<polygon points="106,40 103,37 89.1,50.8 75.3,37 72.3,40 86.1,53.8 72.3,67.6 75.3,70.6 89.1,56.8 103,70.6 106,67.6 92.2,53.8 
					"/>
	</g>
</g>
</svg>
