<?xml version="1.0" encoding="utf-8"?>
<!-- Generator: Adobe Illustrator 23.0.1, SVG Export Plug-In . SVG Version: 6.00 Build 0)  -->
<svg version="1.1" id="Capa_1" xmlns="http://www.w3.org/2000/svg" xmlns:xlink="http://www.w3.org/1999/xlink" x="0px" y="0px"
	 viewBox="0 0 106.1 108.7" style="enable-background:new 0 0 106.1 108.7;" xml:space="preserve">
<style type="text/css">
	.st0{fill:#F44336;}
</style>
<g>
	<path class="st0" d="M2.4,67.5C1.1,67.5,0,66.4,0,65V41c0-1.3,1.1-2.4,2.4-2.4s2.4,1.1,2.4,2.4V65C4.8,66.4,3.7,67.5,2.4,67.5z"/>
	<path class="st0" d="M16.9,86.7c-1.3,0-2.4-1.1-2.4-2.4V21.7c0-1.3,1.1-2.4,2.4-2.4s2.4,1.1,2.4,2.4v62.6
		C19.3,85.6,18.2,86.7,16.9,86.7z"/>
	<path class="st0" d="M31.3,106c-1.3,0-2.4-1.1-2.4-2.4V2.4C28.9,1.1,30,0,31.3,0c1.3,0,2.4,1.1,2.4,2.4v101.2
		C33.7,104.9,32.6,106,31.3,106z"/>
	<path class="st0" d="M45.8,101.2c-1.3,0-2.4-1.1-2.4-2.4V7.2c0-1.3,1.1-2.4,2.4-2.4s2.4,1.1,2.4,2.4v91.5
		C48.2,100.1,47.1,101.2,45.8,101.2z"/>
	<path class="st0" d="M60.2,81.9c-1.3,0-2.4-1.1-2.4-2.4v-53c0-1.3,1.1-2.4,2.4-2.4s2.4,1.1,2.4,2.4v53
		C62.6,80.8,61.6,81.9,60.2,81.9z"/>
	<path class="st0" d="M74.7,101.2c-1.3,0-2.4-1.1-2.4-2.4V7.2c0-1.3,1.1-2.4,2.4-2.4c1.3,0,2.4,1.1,2.4,2.4v91.5
		C77.1,100.1,76,101.2,74.7,101.2z"/>
	<path class="st0" d="M89.1,81.9c-1.3,0-2.4-1.1-2.4-2.4v-53c0-1.3,1.1-2.4,2.4-2.4c1.3,0,2.4,1.1,2.4,2.4v53
		C91.5,80.8,90.5,81.9,89.1,81.9z"/>
	<path class="st0" d="M103.6,67.5c-1.3,0-2.4-1.1-2.4-2.4V41c0-1.3,1.1-2.4,2.4-2.4c1.3,0,2.4,1.1,2.4,2.4V65
		C106,66.4,104.9,67.5,103.6,67.5z"/>
</g>
<path d="M2.4,67.5C1.1,67.5,0,66.4,0,65V41c0-1.3,1.1-2.4,2.4-2.4s2.4,1.1,2.4,2.4V65C4.8,66.4,3.7,67.5,2.4,67.5z"/>
<path d="M16.9,86.7c-1.3,0-2.4-1.1-2.4-2.4V21.7c0-1.3,1.1-2.4,2.4-2.4s2.4,1.1,2.4,2.4v62.6C19.3,85.6,18.2,86.7,16.9,86.7z"/>
<path d="M31.3,106c-1.3,0-2.4-1.1-2.4-2.4V2.4C28.9,1.1,30,0,31.3,0c1.3,0,2.4,1.1,2.4,2.4v101.2C33.7,104.9,32.6,106,31.3,106z"/>
<path d="M45.8,101.2c-1.3,0-2.4-1.1-2.4-2.4V7.2c0-1.3,1.1-2.4,2.4-2.4s2.4,1.1,2.4,2.4v91.5C48.2,100.1,47.1,101.2,45.8,101.2z"/>
<path d="M60.2,81.9c-1.3,0-2.4-1.1-2.4-2.4v-53c0-1.3,1.1-2.4,2.4-2.4s2.4,1.1,2.4,2.4v53C62.6,80.8,61.6,81.9,60.2,81.9z"/>
<path d="M74.7,101.2c-1.3,0-2.4-1.1-2.4-2.4V7.2c0-1.3,1.1-2.4,2.4-2.4c1.3,0,2.4,1.1,2.4,2.4v91.5C77.1,100.1,76,101.2,74.7,101.2z
	"/>
<path d="M89.1,81.9c-1.3,0-2.4-1.1-2.4-2.4v-53c0-1.3,1.1-2.4,2.4-2.4c1.3,0,2.4,1.1,2.4,2.4v53C91.5,80.8,90.5,81.9,89.1,81.9z"/>
<path d="M103.6,67.5c-1.3,0-2.4-1.1-2.4-2.4V41c0-1.3,1.1-2.4,2.4-2.4c1.3,0,2.4,1.1,2.4,2.4V65C106,66.4,104.9,67.5,103.6,67.5z"/>
</svg>
