<?xml version="1.0" encoding="utf-8"?>
<!-- Generator: Adobe Illustrator 23.0.1, SVG Export Plug-In . SVG Version: 6.00 Build 0)  -->
<svg version="1.1" id="Capa_1" xmlns="http://www.w3.org/2000/svg" xmlns:xlink="http://www.w3.org/1999/xlink" x="0px" y="0px"
	 viewBox="0 0 106.6 110.3" style="enable-background:new 0 0 106.6 110.3;" xml:space="preserve">
<g>
	<path d="M30.4,109.9c-7.3-15.2-3.4-24,2.2-32.2c6.2-9,7.8-17.9,7.8-17.9s4.8,6.3,2.9,16.2c8.6-9.5,10.2-24.7,8.9-30.5
		c19.4,13.5,27.6,42.8,16.5,64.5c59.3-33.6,14.8-83.8,7-89.4c2.6,5.7,3.1,15.2-2.1,19.9C64.7,6.9,42.8,0,42.8,0
		c2.6,17.3-9.4,36.2-20.9,50.3c-0.4-6.9-0.8-11.7-4.5-18.2c-0.8,12.5-10.4,22.7-13,35.3C1,84.4,7.1,96.8,30.4,109.9z"/>
</g>
</svg>
