<?xml version="1.0" encoding="utf-8"?>
<!-- Generator: Adobe Illustrator 23.0.2, SVG Export Plug-In . SVG Version: 6.00 Build 0)  -->
<svg version="1.1" id="Capa_1" xmlns="http://www.w3.org/2000/svg" xmlns:xlink="http://www.w3.org/1999/xlink" x="0px" y="0px"
	 viewBox="0 0 33 33" style="enable-background:new 0 0 33 33;" xml:space="preserve">
<g>
	<circle cx="11.7" cy="11.9" r="2.1"/>
	<circle cx="21.8" cy="11.9" r="2.1"/>
	<path d="M10.3,23.9c-0.1,0-0.2,0-0.3-0.1c-0.2-0.1-0.3-0.5-0.2-0.7c1.4-2.3,3.9-3.7,6.6-3.7c2.7,0,5.1,1.4,6.6,3.6
		c0.1,0.2,0.1,0.5-0.2,0.7c-0.2,0.1-0.5,0.1-0.7-0.2c-1.3-2-3.4-3.1-5.7-3.1c-2.4,0-4.5,1.2-5.8,3.2C10.7,23.8,10.5,23.9,10.3,23.9z
		"/>
</g>
</svg>
